name D:\school\WTK\thesis\model\3dpredictsim\Results\debug_tmt\Pog_s1_tmt_bCst_d00_k500_ig24_pas_v3.mot
datacolumns 128
datarows 4
range 0.56501228 0.59891301
endheader
time	pelvis_tilt	pelvis_list	pelvis_rotation	pelvis_tx	pelvis_ty	pelvis_tz	hip_flexion_l	hip_adduction_l	hip_rotation_l	hip_flexion_r	hip_adduction_r	hip_rotation_r	knee_angle_l	knee_angle_r	ankle_angle_l	ankle_angle_r	subtalar_angle_l	subtalar_angle_r	tmt_angle_l	tmt_angle_r	mtp_angle_l	mtp_angle_r	lumbar_extension	lumbar_bending	lumbar_rotation	arm_flex_l	arm_add_l	arm_rot_l	arm_flex_r	arm_add_r	arm_rot_r	elbow_flex_l	elbow_flex_r	pro_sup_l	pro_sup_r	glut_med1_l/activation	glut_med2_l/activation	glut_med3_l/activation	glut_min1_l/activation	glut_min2_l/activation	glut_min3_l/activation	semimem_l/activation	semiten_l/activation	bifemlh_l/activation	bifemsh_l/activation	sar_l/activation	add_long_l/activation	add_brev_l/activation	add_mag1_l/activation	add_mag2_l/activation	add_mag3_l/activation	tfl_l/activation	pect_l/activation	grac_l/activation	glut_max1_l/activation	glut_max2_l/activation	glut_max3_l/activation	iliacus_l/activation	psoas_l/activation	quad_fem_l/activation	gem_l/activation	peri_l/activation	rect_fem_l/activation	vas_med_l/activation	vas_int_l/activation	vas_lat_l/activation	med_gas_l/activation	lat_gas_l/activation	soleus_l/activation	tib_post_l/activation	flex_dig_l/activation	flex_hal_l/activation	tib_ant_l/activation	per_brev_l/activation	per_long_l/activation	per_tert_l/activation	ext_dig_l/activation	ext_hal_l/activation	ercspn_l/activation	intobl_l/activation	extobl_l/activation	glut_med1_r/activation	glut_med2_r/activation	glut_med3_r/activation	glut_min1_r/activation	glut_min2_r/activation	glut_min3_r/activation	semimem_r/activation	semiten_r/activation	bifemlh_r/activation	bifemsh_r/activation	sar_r/activation	add_long_r/activation	add_brev_r/activation	add_mag1_r/activation	add_mag2_r/activation	add_mag3_r/activation	tfl_r/activation	pect_r/activation	grac_r/activation	glut_max1_r/activation	glut_max2_r/activation	glut_max3_r/activation	iliacus_r/activation	psoas_r/activation	quad_fem_r/activation	gem_r/activation	peri_r/activation	rect_fem_r/activation	vas_med_r/activation	vas_int_r/activation	vas_lat_r/activation	med_gas_r/activation	lat_gas_r/activation	soleus_r/activation	tib_post_r/activation	flex_dig_r/activation	flex_hal_r/activation	tib_ant_r/activation	per_brev_r/activation	per_long_r/activation	per_tert_r/activation	ext_dig_r/activation	ext_hal_r/activation	ercspn_r/activation	intobl_r/activation	extobl_r/activation	
          0.56501228	         -2.92507691	          2.49926263	         -6.46318111	          0.70626535	          0.85473714	          0.00343571	         32.35619845	          3.31979568	         -2.41051696	        -17.68242046	         -2.14808890	          9.47039028	        -15.63091276	        -10.57311278	          5.36162057	         -1.64693990	         -2.78776114	         12.95028629	          0.06002133	          3.07410562	         -0.09022530	         23.12135962	         -2.19811946	         -1.17096672	          2.02572008	        -11.83709410	        -13.72192528	          5.22436021	          7.29910966	        -13.47944381	         16.72032800	         16.82861745	         44.45413289	         86.51662706	         86.51662706	          0.05941686	          0.05941669	          0.05000084	          0.05941666	          0.05941652	          0.05941598	          0.05941696	          0.05941692	          0.27121554	          0.05000117	          0.05000046	          0.11848575	          0.23841373	          0.10916287	          0.17391664	          0.10344836	          0.05000135	          0.05026260	          0.07747471	          0.05016659	          0.05041181	          0.11569954	          0.05779675	          0.05877155	          0.33518870	          0.05122767	          0.10285422	          0.05000013	          0.13349876	          0.13999309	          0.11297670	          0.05941687	          0.05941687	          0.05941687	          0.05000037	          0.05000137	          0.05000191	          0.51286459	          0.35874556	          0.21123075	          0.22155731	          0.57172605	          0.18726366	          0.05687607	          0.09001779	          0.09083450	          0.27603034	          0.08810482	          0.05000006	          0.32906093	          0.20090389	          0.09618012	          0.05000419	          0.05000049	          0.05000037	          0.07140771	          0.09973208	          0.13034463	          0.05138956	          0.05000302	          0.05000319	          0.05000224	          0.28258089	          0.07815984	          0.05000098	          0.05000244	          0.05000184	          0.05000130	          0.35783850	          0.55535128	          0.05000014	          0.05000060	          0.05000017	          0.22149987	          0.12452896	          0.05009311	          0.05010359	          0.27676354	          0.37482048	          0.26979829	          0.22174070	          0.25023218	          0.31055053	          0.05000001	          0.08201165	          0.16567880	          0.05000013	          0.05000002	          0.05000010	          0.05000003	          0.05000012	          0.05000036	
          0.57631252	         -2.91392194	          2.61032070	         -6.69945016	          0.72390190	          0.85368647	          0.00319811	         31.63474153	          3.81277772	         -2.21016224	        -17.32238821	         -2.44212539	          9.22745342	        -15.55609744	        -12.92088522	          4.72999248	         -2.69943246	         -3.32054411	         14.16079256	          0.06367308	          2.48982826	         -0.08705921	         24.20058078	         -1.96016347	         -1.42595538	          2.12951589	        -13.03568866	        -13.70651069	          5.07913367	          6.95446938	        -13.51445830	         16.92464922	         16.77280092	         45.71537242	         86.51662706	         86.51662706	          0.05000004	          0.05000009	          0.07621717	          0.05000007	          0.05000010	          0.05000013	          0.05000011	          0.05000016	          0.22823120	          0.05000015	          0.05941781	          0.09970776	          0.24439503	          0.39314595	          0.24754910	          0.08705328	          0.05000021	          0.05032339	          0.06519634	          0.05349419	          0.07541470	          0.15549619	          0.05000029	          0.05941730	          0.62083353	          0.17985315	          0.16092708	          0.07060737	          0.26063582	          0.26144026	          0.21895637	          0.05000002	          0.05000005	          0.05000001	          0.05000156	          0.07060622	          0.05035618	          0.63806969	          0.30188893	          0.22056973	          0.47691995	          0.63237974	          0.24298901	          0.05000001	          0.07575105	          0.07643832	          0.23228288	          0.07414130	          0.05941690	          0.27690882	          0.16906311	          0.08093684	          0.05000303	          0.05000026	          0.05000036	          0.06009045	          0.08392594	          0.20739118	          0.19486906	          0.17976452	          0.05023631	          0.07051433	          0.23779543	          0.09970227	          0.05000231	          0.05000526	          0.05000230	          0.05000250	          0.30112538	          0.48961336	          0.05001517	          0.05942396	          0.05941710	          0.18639484	          0.11848787	          0.11940159	          0.11848676	          0.23289980	          0.31541588	          0.22703846	          0.18659747	          0.21057355	          0.26133207	          0.05563030	          0.06901384	          0.13942073	          0.05000029	          0.05742936	          0.05000060	          0.06628148	          0.07060739	          0.05000025	
          0.58761277	         -2.89741406	          2.72469294	         -6.90245064	          0.74179300	          0.85248822	          0.00298724	         30.72781018	          4.22186424	         -1.91037268	        -16.86767752	         -2.71489262	          8.96882364	        -15.85260820	        -15.42463674	          4.18064382	         -3.86312902	         -3.88944467	         15.27002971	         -0.07170971	          1.83688928	         -0.15055161	         24.97441629	         -1.70314061	         -1.68886935	          2.22028593	        -14.20182257	        -13.69889585	          5.01873574	          6.52294353	        -13.55071877	         17.05244395	         16.66755723	         46.94305598	         86.51662706	         86.51662706	          0.32656592	          0.30392166	          0.31333186	          0.09777233	          0.05000164	          0.12519514	          0.09989928	          0.13201561	          0.20158975	          0.05000047	          0.05000121	          0.08390559	          0.21239128	          0.33083717	          0.23262855	          0.15622055	          0.05000042	          0.07060566	          0.15046795	          0.05000019	          0.06346246	          0.13085266	          0.05409439	          0.05000092	          0.52243880	          0.15134867	          0.26017780	          0.05941695	          0.21932822	          0.22000520	          0.18425445	          0.05941679	          0.05941667	          0.05941685	          0.05000008	          0.05941652	          0.05941656	          0.54987923	          0.41738507	          0.19590892	          0.52040558	          0.66156343	          0.20447827	          0.05464590	          0.07874872	          0.06432376	          0.30363627	          0.06239083	          0.05000029	          0.23302233	          0.14226872	          0.06810940	          0.05000222	          0.05000030	          0.05000035	          0.05056686	          0.07062487	          0.17452265	          0.30488796	          0.15127439	          0.05941881	          0.05941747	          0.20010890	          0.08396731	          0.05000206	          0.05006830	          0.05014888	          0.05941553	          0.25340063	          0.44254328	          0.05316721	          0.05000674	          0.05000028	          0.15685347	          0.09970900	          0.10047790	          0.09970805	          0.19598794	          0.26542621	          0.19105555	          0.15702401	          0.17720028	          0.21991412	          0.15685333	          0.16720924	          0.17174602	          0.05000036	          0.21370932	          0.13089553	          0.08529522	          0.05941696	          0.05000013	
          0.59891301	         -2.87780920	          2.83604828	         -7.06774502	          0.75967505	          0.85116995	          0.00276305	         29.69227834	          4.58193978	         -1.59333409	        -16.28020295	         -2.95741282	          8.70609212	        -16.14079482	        -18.13641913	          3.83308139	         -5.01911934	         -4.49256641	         16.25773328	         -0.01817366	          1.22610087	         -0.16488813	         25.02236162	         -1.45266625	         -1.94924258	          2.30030544	        -15.27591824	        -13.69692048	          5.06065273	          6.05179184	        -13.59443875	         17.12777484	         16.48085678	         48.10856311	         86.51662706	         86.51662706	          0.44062188	          0.47858899	          0.51187844	          0.26080403	          0.28558517	          0.39403328	          0.08406706	          0.12755240	          0.16964019	          0.07060738	          0.05000083	          0.07060760	          0.17872983	          0.27840364	          0.22775249	          0.17837942	          0.05000031	          0.05941623	          0.12662103	          0.27937025	          0.20582320	          0.17069468	          0.05000013	          0.05000014	          0.43963851	          0.12736189	          0.24576171	          0.05000010	          0.25202569	          0.28006726	          0.21695101	          0.05000003	          0.05000006	          0.05000001	          0.05000001	          0.05000022	          0.05000014	          0.72722722	          0.35123455	          0.16485974	          0.72646899	          0.69723266	          0.42243435	          0.08671020	          0.06626809	          0.05412922	          0.25551361	          0.05250269	          0.05000008	          0.19609200	          0.11972096	          0.05731505	          0.05002019	          0.05000055	          0.05000061	          0.05000042	          0.05943229	          0.17359344	          0.25656704	          0.12729950	          0.05000216	          0.05000119	          0.16839483	          0.07066029	          0.05000113	          0.05000084	          0.05000050	          0.05000030	          0.21323967	          0.38273830	          0.05000009	          0.05000063	          0.05000052	          0.13199407	          0.08390633	          0.08455337	          0.08390553	          0.16492618	          0.22335932	          0.16077551	          0.13213764	          0.14911635	          0.18506051	          0.23946398	          0.14786105	          0.14452653	          0.27915692	          0.26790768	          0.15151646	          0.11663073	          0.05000009	          0.05000006	
